<svg width="160" height="160" viewBox="0 0 160 160" fill="none" xmlns="http://www.w3.org/2000/svg">
  <rect width="160" height="160" rx="36" fill="#07C160"/>
  <path d="M51 49C36.0883 49 24 59.8802 24 73.3C24 80.3202 27.3219 86.6425 32.6484 91.0902L30.1953 102L40.8203 96.3984C43.9448 97.324 47.3297 97.8 51 97.8C65.9117 97.8 78 86.9198 78 73.5C78 60.0802 65.9117 49 51 49Z" fill="white"/>
  <path d="M109 62C125.569 62 139 74.0791 139 89C139 103.921 125.569 116 109 116C105.151 116 101.473 115.347 98.0977 114.148L87 120L89.6445 108.336C83.9994 103.473 80.5 96.6219 80.5 89C80.5 74.0791 93.9315 62 109 62Z" fill="white" fill-opacity="0.9"/>
  <circle cx="43.5" cy="72.5" r="4.5" fill="#07C160"/>
  <circle cx="59.5" cy="72.5" r="4.5" fill="#07C160"/>
  <circle cx="100" cy="88.5" r="4.5" fill="#07C160"/>
  <circle cx="116" cy="88.5" r="4.5" fill="#07C160"/>
</svg>
