<svg width="160" height="160" viewBox="0 0 160 160" fill="none" xmlns="http://www.w3.org/2000/svg">
  <rect width="160" height="160" rx="80" fill="#EFF5F2"/>
  <circle cx="80" cy="60" r="28" fill="#F2C9B1"/>
  <path d="M44 134C47 105 60 92 80 92C100 92 113 105 116 134H44Z" fill="#4A6A66"/>
  <path d="M54 50C57 34 70 24 82 24C93 24 104 34 106 51C98 44 91 41 81 41C71 41 63 43 54 50Z" fill="#3A413F"/>
  <rect x="111" y="34" width="30" height="22" rx="6" fill="#FFFFFF"/>
  <path d="M116 40L126 47L136 40" stroke="#A88C5D" stroke-width="3.5" stroke-linecap="round" stroke-linejoin="round"/>
</svg>
